<svg width="938" height="110" viewBox="0 0 938 110" fill="none" xmlns="http://www.w3.org/2000/svg">
<path d="M66.32 106.4H67.12C69.68 106.4 70.96 105.227 70.96 102.88C70.96 102.027 70.8 101.12 70.48 100.16L56.08 61.28H28.08L14.16 99.52C13.84 100.373 13.68 101.173 13.68 101.92C13.68 103.307 14.0533 104.427 14.8 105.28C15.5467 106.027 16.3467 106.4 17.2 106.4H18V108H0.24V106.4H1.04C2.42667 106.4 3.76 105.6 5.04 104C6.42667 102.293 7.54667 100.32 8.4 98.08L45.04 0.479992L80.88 97.12C81.6267 99.2533 82.64 101.333 83.92 103.36C85.3067 105.387 87.0667 106.4 89.2 106.4H90V108H66.32V106.4ZM29.68 55.84H54.32L42 22.4L29.68 55.84ZM116.375 106.4H117.175V108H99.415V106.4H100.215C100.962 106.4 101.655 106.08 102.295 105.44C103.042 104.8 103.628 104.053 104.055 103.2C104.482 102.347 104.802 101.44 105.015 100.48C105.335 99.4133 105.495 98.4533 105.495 97.6V12.32C105.495 11.5733 105.388 10.72 105.175 9.76C105.068 8.8 104.802 7.89333 104.375 7.03999C103.948 6.18666 103.362 5.49332 102.615 4.95999C101.868 4.31999 100.962 3.99999 99.895 3.99999H99.095V2.4H115.255L173.335 93.92V12.32C173.335 11.5733 173.175 10.72 172.855 9.76C172.642 8.8 172.268 7.89333 171.735 7.03999C171.308 6.18666 170.775 5.49332 170.135 4.95999C169.495 4.31999 168.748 3.99999 167.895 3.99999H167.095V2.4H185.015V3.99999H184.215C183.362 3.99999 182.615 4.31999 181.975 4.95999C181.335 5.49332 180.748 6.18666 180.215 7.03999C179.788 7.89333 179.468 8.8 179.255 9.76C179.042 10.72 178.935 11.5733 178.935 12.32V108H169.015L111.095 16.16V97.6C111.095 98.4533 111.202 99.4133 111.415 100.48C111.628 101.44 111.948 102.347 112.375 103.2C112.908 104.053 113.495 104.8 114.135 105.44C114.775 106.08 115.522 106.4 116.375 106.4ZM216.844 106.4H217.644V108H199.884V106.4H200.684C201.43 106.4 202.124 106.08 202.764 105.44C203.51 104.8 204.097 104.053 204.524 103.2C204.95 102.347 205.27 101.44 205.484 100.48C205.804 99.4133 205.964 98.4533 205.964 97.6V12.32C205.964 11.5733 205.857 10.72 205.644 9.76C205.537 8.8 205.27 7.89333 204.844 7.03999C204.417 6.18666 203.83 5.49332 203.084 4.95999C202.337 4.31999 201.43 3.99999 200.364 3.99999H199.564V2.4H215.724L273.804 93.92V12.32C273.804 11.5733 273.644 10.72 273.324 9.76C273.11 8.8 272.737 7.89333 272.204 7.03999C271.777 6.18666 271.244 5.49332 270.604 4.95999C269.964 4.31999 269.217 3.99999 268.364 3.99999H267.564V2.4H285.484V3.99999H284.684C283.83 3.99999 283.084 4.31999 282.444 4.95999C281.804 5.49332 281.217 6.18666 280.684 7.03999C280.257 7.89333 279.937 8.8 279.724 9.76C279.51 10.72 279.404 11.5733 279.404 12.32V108H269.484L211.564 16.16V97.6C211.564 98.4533 211.67 99.4133 211.884 100.48C212.097 101.44 212.417 102.347 212.844 103.2C213.377 104.053 213.964 104.8 214.604 105.44C215.244 106.08 215.99 106.4 216.844 106.4ZM364.155 106.4H364.955V108H342.075V106.4H342.875C343.728 106.4 344.475 106.08 345.115 105.44C345.755 104.8 346.288 104.053 346.715 103.2C347.248 102.347 347.622 101.44 347.835 100.48C348.048 99.4133 348.155 98.4533 348.155 97.6V12.32C348.155 11.5733 348.048 10.72 347.835 9.76C347.622 8.8 347.248 7.89333 346.715 7.03999C346.288 6.18666 345.755 5.49332 345.115 4.95999C344.475 4.31999 343.782 3.99999 343.035 3.99999H342.235V2.4H365.115V3.99999H364.315C363.462 3.99999 362.715 4.31999 362.075 4.95999C361.435 5.49332 360.848 6.18666 360.315 7.03999C359.888 7.89333 359.515 8.8 359.195 9.76C358.982 10.72 358.875 11.5733 358.875 12.32V49.44L399.515 9.12C400.155 8.37333 400.475 7.52 400.475 6.56C400.475 4.85333 399.835 3.99999 398.555 3.99999H397.755V2.4H417.275V3.99999H416.475C414.982 3.99999 413.435 4.53333 411.835 5.59999C410.235 6.66666 408.635 7.99999 407.035 9.6L373.435 43.04L408.795 96.64C408.902 96.8533 409.382 97.4933 410.235 98.56C411.088 99.6267 412.102 100.747 413.275 101.92C414.555 103.093 415.942 104.16 417.435 105.12C419.035 105.973 420.635 106.4 422.235 106.4V108H418.395C415.195 108 412.475 107.84 410.235 107.52C408.102 107.093 406.235 106.453 404.635 105.6C403.035 104.747 401.595 103.68 400.315 102.4C399.142 101.12 397.915 99.52 396.635 97.6L365.595 50.72L358.875 57.6V97.6C358.875 98.4533 358.982 99.36 359.195 100.32C359.515 101.28 359.888 102.24 360.315 103.2C360.742 104.053 361.275 104.8 361.915 105.44C362.555 106.08 363.302 106.4 364.155 106.4ZM432.7 2.4H455.42V3.99999H454.62C453.767 3.99999 453.02 4.31999 452.38 4.95999C451.74 5.49332 451.153 6.18666 450.62 7.03999C450.193 7.89333 449.873 8.8 449.66 9.76C449.447 10.72 449.34 11.5733 449.34 12.32V75.52C449.34 79.68 449.767 83.52 450.62 87.04C451.473 90.56 452.913 93.6 454.94 96.16C456.967 98.72 459.633 100.747 462.94 102.24C466.247 103.627 470.3 104.32 475.1 104.32C480.433 104.32 484.7 103.467 487.9 101.76C491.1 100.053 493.553 97.8667 495.26 95.2C496.967 92.4267 498.087 89.3333 498.62 85.92C499.153 82.5067 499.42 79.1467 499.42 75.84V12.32C499.42 11.5733 499.313 10.72 499.1 9.76C498.887 8.8 498.513 7.89333 497.98 7.03999C497.553 6.18666 497.02 5.49332 496.38 4.95999C495.74 4.31999 495.047 3.99999 494.3 3.99999H493.5V2.4H510.94V3.99999H510.14C509.287 3.99999 508.54 4.31999 507.9 4.95999C507.367 5.49332 506.833 6.18666 506.3 7.03999C505.873 7.89333 505.553 8.8 505.34 9.76C505.127 10.72 505.02 11.5733 505.02 12.32V75.36C505.02 82.2933 504.167 88 502.46 92.48C500.753 96.8533 498.407 100.32 495.42 102.88C492.433 105.44 488.913 107.2 484.86 108.16C480.913 109.12 476.7 109.6 472.22 109.6C467.42 109.6 462.94 109.067 458.78 108C454.727 107.04 451.207 105.28 448.22 102.72C445.233 100.16 442.887 96.6933 441.18 92.32C439.473 87.84 438.62 82.24 438.62 75.52V12.32C438.62 11.5733 438.513 10.72 438.3 9.76C438.087 8.8 437.713 7.89333 437.18 7.03999C436.753 6.18666 436.22 5.49332 435.58 4.95999C434.94 4.31999 434.247 3.99999 433.5 3.99999H432.7V2.4ZM547.898 106.4H548.698V108H526.138V106.4H526.938C527.684 106.4 528.378 106.08 529.018 105.44C529.658 104.8 530.191 104.053 530.618 103.2C531.151 102.347 531.524 101.44 531.738 100.48C531.951 99.4133 532.058 98.4533 532.058 97.6V12.32C532.058 11.5733 531.951 10.72 531.738 9.76C531.524 8.8 531.151 7.89333 530.618 7.03999C530.191 6.18666 529.658 5.49332 529.018 4.95999C528.378 4.31999 527.684 3.99999 526.938 3.99999H526.138V2.4H553.978C564.644 2.4 572.858 4.47999 578.618 8.63999C584.484 12.8 587.418 18.9333 587.418 27.04C587.418 31.0933 586.724 34.6667 585.338 37.76C584.058 40.7467 582.298 43.36 580.058 45.6C577.818 47.7333 575.151 49.4933 572.058 50.88C569.071 52.16 565.871 53.12 562.458 53.76L573.978 71.36C576.751 75.6267 579.578 79.84 582.458 84C585.338 88.0533 588.164 92.2667 590.938 96.64C591.684 97.7067 592.484 98.8267 593.338 100C594.298 101.173 595.258 102.24 596.218 103.2C597.284 104.16 598.351 104.96 599.418 105.6C600.591 106.133 601.764 106.4 602.938 106.4V108H596.058C591.791 108 588.271 106.987 585.498 104.96C582.831 102.827 580.591 100.373 578.778 97.6C573.978 90.56 569.178 83.4133 564.378 76.16C559.684 68.9067 554.991 61.76 550.298 54.72C549.124 54.6133 547.844 54.5067 546.458 54.4C545.178 54.1867 543.951 53.9733 542.778 53.76V97.6C542.778 98.4533 542.884 99.4133 543.098 100.48C543.311 101.44 543.631 102.347 544.058 103.2C544.591 104.053 545.124 104.8 545.658 105.44C546.298 106.08 547.044 106.4 547.898 106.4ZM542.778 7.83999V48.48H543.578C544.431 48.5867 545.764 48.6933 547.578 48.8C549.498 48.8 551.844 48.8 554.618 48.8C556.858 48.8 559.204 48.48 561.658 47.84C564.218 47.0933 566.564 45.92 568.698 44.32C570.938 42.6133 572.751 40.4267 574.138 37.76C575.631 35.0933 576.378 31.7333 576.378 27.68C576.378 23.6267 575.578 20.32 573.978 17.76C572.484 15.2 570.351 13.1733 567.578 11.68C564.911 10.1867 561.658 9.17332 557.818 8.63999C553.978 8.10666 549.764 7.83999 545.178 7.83999H542.778ZM613.184 2.4H636.064V3.99999H635.264C634.517 3.99999 633.824 4.31999 633.184 4.95999C632.544 5.49332 632.01 6.18666 631.584 7.03999C631.157 7.78666 630.784 8.69333 630.464 9.76C630.25 10.72 630.144 11.5733 630.144 12.32V97.6C630.144 98.4533 630.25 99.4133 630.464 100.48C630.677 101.44 630.997 102.347 631.424 103.2C631.957 104.053 632.49 104.8 633.024 105.44C633.664 106.08 634.41 106.4 635.264 106.4H636.064V108H613.184V106.4H613.984C614.837 106.4 615.584 106.133 616.224 105.6C616.864 104.96 617.397 104.213 617.824 103.36C618.357 102.4 618.73 101.44 618.944 100.48C619.157 99.4133 619.264 98.4533 619.264 97.6V12.32C619.264 11.5733 619.157 10.72 618.944 9.76C618.73 8.8 618.357 7.89333 617.824 7.03999C617.397 6.18666 616.864 5.49332 616.224 4.95999C615.584 4.31999 614.837 3.99999 613.984 3.99999H613.184V2.4ZM668.25 106.4H669.05V108H651.29V106.4H652.09C652.837 106.4 653.53 106.08 654.17 105.44C654.917 104.8 655.503 104.053 655.93 103.2C656.357 102.347 656.677 101.44 656.89 100.48C657.21 99.4133 657.37 98.4533 657.37 97.6V12.32C657.37 11.5733 657.263 10.72 657.05 9.76C656.943 8.8 656.677 7.89333 656.25 7.03999C655.823 6.18666 655.237 5.49332 654.49 4.95999C653.743 4.31999 652.837 3.99999 651.77 3.99999H650.97V2.4H667.13L725.21 93.92V12.32C725.21 11.5733 725.05 10.72 724.73 9.76C724.517 8.8 724.143 7.89333 723.61 7.03999C723.183 6.18666 722.65 5.49332 722.01 4.95999C721.37 4.31999 720.623 3.99999 719.77 3.99999H718.97V2.4H736.89V3.99999H736.09C735.237 3.99999 734.49 4.31999 733.85 4.95999C733.21 5.49332 732.623 6.18666 732.09 7.03999C731.663 7.89333 731.343 8.8 731.13 9.76C730.917 10.72 730.81 11.5733 730.81 12.32V108H720.89L662.97 16.16V97.6C662.97 98.4533 663.077 99.4133 663.29 100.48C663.503 101.44 663.823 102.347 664.25 103.2C664.783 104.053 665.37 104.8 666.01 105.44C666.65 106.08 667.397 106.4 668.25 106.4ZM768.719 106.4H769.519V108H751.759V106.4H752.559C753.305 106.4 753.999 106.08 754.639 105.44C755.385 104.8 755.972 104.053 756.399 103.2C756.825 102.347 757.145 101.44 757.359 100.48C757.679 99.4133 757.839 98.4533 757.839 97.6V12.32C757.839 11.5733 757.732 10.72 757.519 9.76C757.412 8.8 757.145 7.89333 756.719 7.03999C756.292 6.18666 755.705 5.49332 754.959 4.95999C754.212 4.31999 753.305 3.99999 752.239 3.99999H751.439V2.4H767.599L825.679 93.92V12.32C825.679 11.5733 825.519 10.72 825.199 9.76C824.985 8.8 824.612 7.89333 824.079 7.03999C823.652 6.18666 823.119 5.49332 822.479 4.95999C821.839 4.31999 821.092 3.99999 820.239 3.99999H819.439V2.4H837.359V3.99999H836.559C835.705 3.99999 834.959 4.31999 834.319 4.95999C833.679 5.49332 833.092 6.18666 832.559 7.03999C832.132 7.89333 831.812 8.8 831.599 9.76C831.385 10.72 831.279 11.5733 831.279 12.32V108H821.359L763.439 16.16V97.6C763.439 98.4533 763.545 99.4133 763.759 100.48C763.972 101.44 764.292 102.347 764.719 103.2C765.252 104.053 765.839 104.8 766.479 105.44C767.119 106.08 767.865 106.4 768.719 106.4ZM913.508 106.4H914.308C916.868 106.4 918.148 105.227 918.148 102.88C918.148 102.027 917.988 101.12 917.668 100.16L903.268 61.28H875.268L861.348 99.52C861.028 100.373 860.868 101.173 860.868 101.92C860.868 103.307 861.241 104.427 861.988 105.28C862.734 106.027 863.534 106.4 864.388 106.4H865.188V108H847.428V106.4H848.228C849.614 106.4 850.948 105.6 852.228 104C853.614 102.293 854.734 100.32 855.588 98.08L892.227 0.479992L928.068 97.12C928.814 99.2533 929.828 101.333 931.108 103.36C932.494 105.387 934.254 106.4 936.388 106.4H937.188V108H913.508V106.4ZM876.868 55.84H901.508L889.188 22.4L876.868 55.84Z" fill="#FEF6EF"/>
</svg>
